<svg width="510" height="715" viewBox="0 0 510 715" fill="none" xmlns="http://www.w3.org/2000/svg">
<path d="M254.781 965.725C182.259 949.863 43.3139 876.795 67.7114 711.42C98.2083 504.701 135.396 485.65 31.1235 419.343C-73.1487 353.035 -185.096 439.749 -282.898 229.857C-380.701 19.9651 -69.4216 -78.8275 -189.995 -155.77C-310.569 -232.713 -323.447 -85.4163 -390.823 -179.553C-444.724 -254.863 -414.689 -314.231 -392.933 -334.501" stroke="#5C93B1" stroke-opacity="0.1"/>
<path d="M268.816 961.729C196.739 945.704 58.5352 872.402 82.3282 707.399C112.07 501.146 148.956 482.231 45.2092 415.769C-58.5374 349.307 -169.5 435.561 -267.203 225.8C-364.906 16.0385 -55.9849 -81.7417 -175.952 -158.862C-295.919 -235.983 -308.317 -88.9943 -375.491 -183.135C-429.229 -258.448 -399.554 -317.626 -377.999 -337.8" stroke="#5C93B1" stroke-opacity="0.1"/>
<path d="M283.849 957.294C211.326 941.432 72.3813 868.364 96.7788 702.989C127.276 496.27 164.463 477.219 60.1909 410.911C-44.0813 344.603 -156.028 431.318 -253.831 221.426C-351.634 11.5339 -40.3542 -87.2586 -160.928 -164.201C-281.502 -241.144 -294.379 -93.8474 -361.756 -187.984C-415.657 -263.294 -385.621 -322.662 -363.866 -342.932" stroke="#5C93B1" stroke-opacity="0.1"/>
<path d="M297.48 952.383C225.404 936.357 87.1997 863.056 110.993 698.053C140.734 491.8 177.62 472.884 73.8737 406.422C-29.8729 339.96 -140.835 426.215 -238.538 216.454C-336.241 6.69221 -27.3204 -91.0879 -147.287 -168.208C-267.254 -245.329 -279.653 -98.3406 -346.826 -192.482C-400.565 -267.794 -370.889 -326.972 -349.334 -347.147" stroke="#5C93B1" stroke-opacity="0.1"/>
<path d="M312.721 947.856C240.428 931.926 101.87 858.78 125.985 693.636C156.129 487.205 193.166 468.223 89.1709 401.871C-14.8242 335.518 -126.284 421.992 -224.004 212.238C-321.725 2.48437 -11.6297 -95.813 -131.884 -172.807C-252.137 -249.801 -264.793 -102.7 -332.053 -196.803C-385.86 -272.085 -355.998 -331.345 -334.342 -351.564" stroke="#5C93B1" stroke-opacity="0.1"/>
<path d="M327.047 943.732C254.524 927.87 115.579 854.802 139.977 689.427C170.474 482.708 207.661 463.657 103.389 397.35C-0.883332 331.042 -112.83 417.756 -210.633 207.864C-308.436 -2.02791 2.84378 -100.82 -117.73 -177.763C-238.304 -254.706 -251.181 -107.409 -318.558 -201.546C-372.459 -276.856 -342.423 -336.224 -320.668 -356.494" stroke="#5C93B1" stroke-opacity="0.1"/>
<path d="M341.081 939.736C268.993 923.683 130.755 850.304 154.508 685.212C184.2 478.848 221.086 459.93 117.311 393.403C13.5357 326.877 -97.4173 413.153 -195.184 203.246C-292.952 -6.66202 15.9788 -104.42 -104.021 -181.616C-224.021 -258.811 -236.384 -111.741 -303.588 -205.954C-357.352 -281.324 -327.689 -340.528 -306.136 -360.709" stroke="#5C93B1" stroke-opacity="0.1"/>
<path d="M355.711 934.385C283.201 918.551 144.29 845.561 168.727 680.275C199.273 473.667 236.461 454.619 132.217 388.376C27.9737 322.132 -83.9829 408.825 -181.721 199.079C-279.46 -10.6667 31.8102 -109.481 -88.7306 -186.349C-209.271 -263.217 -222.185 -116.002 -289.53 -210.067C-343.406 -285.32 -313.358 -344.661 -291.6 -364.925" stroke="#5C93B1" stroke-opacity="0.1"/>
<path d="M370.453 930.078C298.16 914.148 159.602 841.002 183.717 675.858C213.861 469.428 250.898 450.446 146.903 384.093C42.9075 317.741 -68.5521 404.214 -166.273 194.461C-263.993 -15.2931 46.102 -113.59 -74.1518 -190.585C-194.406 -267.579 -207.062 -120.477 -274.321 -214.58C-328.128 -289.863 -298.267 -349.122 -276.61 -369.342" stroke="#5C93B1" stroke-opacity="0.1"/>
<path d="M384.986 925.863C312.681 909.905 174.089 836.682 198.165 671.448C228.26 464.906 265.296 445.923 161.272 379.505C57.2487 313.088 -54.2014 399.583 -151.986 189.684C-249.771 -20.2161 60.3338 -118.491 -59.9531 -195.561C-180.24 -272.63 -192.86 -125.446 -260.151 -219.621C-313.983 -294.961 -284.133 -354.247 -262.48 -374.472" stroke="#5C93B1" stroke-opacity="0.1"/>
<path d="M398.909 920.824C326.399 904.989 187.488 831.999 211.925 666.713C242.471 460.105 279.659 441.057 175.415 374.814C71.1717 308.571 -40.7849 395.263 -138.523 185.517C-236.262 -24.2286 75.0082 -123.043 -45.5326 -199.911C-166.073 -276.779 -178.987 -129.564 -246.332 -223.629C-300.208 -298.882 -270.16 -358.223 -248.402 -378.487" stroke="#5C93B1" stroke-opacity="0.1"/>
<path d="M413.347 917.743C341.258 901.69 203.02 828.311 226.774 663.219C256.466 456.855 293.352 437.937 189.576 371.41C85.8013 304.884 -25.1517 391.16 -122.919 181.253C-220.686 -28.655 88.2445 -126.413 -31.7554 -203.609C-151.755 -280.804 -164.118 -133.734 -231.323 -227.947C-285.087 -303.317 -255.423 -362.521 -233.871 -382.702" stroke="#5C93B1" stroke-opacity="0.1"/>
<path d="M428.185 912.301C355.879 896.343 217.288 823.12 241.363 657.886C271.458 451.345 308.494 432.361 204.471 365.943C100.447 299.526 -11.0031 386.021 -108.788 176.122C-206.573 -33.778 103.532 -132.053 -16.7548 -209.123C-137.042 -286.192 -149.662 -139.008 -216.952 -233.183C-270.785 -308.523 -240.935 -367.809 -219.281 -388.034" stroke="#5C93B1" stroke-opacity="0.1"/>
<path d="M442.718 908.085C370.425 892.155 231.868 819.009 255.983 653.865C286.126 447.435 323.163 428.453 219.168 362.1C115.173 295.748 3.71355 382.221 -94.0071 172.468C-191.728 -37.2861 118.368 -135.583 -1.88621 -212.578C-122.14 -289.572 -134.796 -142.47 -202.055 -236.573C-255.863 -311.856 -226.001 -371.115 -204.345 -391.335" stroke="#5C93B1" stroke-opacity="0.1"/>
<path d="M457.252 903.87C384.947 887.912 246.355 814.689 270.431 649.455C300.525 442.913 337.562 423.93 233.538 357.512C129.514 291.095 18.0643 377.59 -79.7207 167.691C-177.506 -42.2092 132.599 -140.484 12.3126 -217.554C-107.974 -294.623 -120.594 -147.439 -187.885 -241.614C-241.717 -316.954 -211.868 -376.24 -190.214 -396.465" stroke="#5C93B1" stroke-opacity="0.1"/>
</svg>
