<svg width="851" height="715" viewBox="0 0 851 715" fill="none" xmlns="http://www.w3.org/2000/svg">
<path d="M614.248 870.775C540.072 867.758 390.543 819.951 385.827 652.852C379.933 443.979 413.244 418.755 299.035 371.579C184.825 324.402 89.6523 429.252 -43.1404 239.552C-175.933 49.8525 113.44 -101.536 -18.6717 -156.352C-150.783 -211.169 -137.865 -63.8757 -220.576 -144.87C-286.746 -209.666 -267.485 -273.35 -249.584 -297.093" stroke="#5C93B1" stroke-opacity="0.1"/>
<path d="M627.374 864.401C553.609 861.146 404.769 812.979 399.523 646.353C392.966 438.07 426.003 413.031 312.285 365.611C198.566 318.191 104.283 422.418 -28.3887 232.829C-161.06 43.2405 126.165 -106.741 -5.37914 -161.838C-136.924 -216.935 -123.587 -70.0287 -206.1 -151.063C-272.11 -215.89 -253.171 -279.324 -235.45 -302.938" stroke="#5C93B1" stroke-opacity="0.1"/>
<path d="M641.407 857.42C567.232 854.404 417.703 806.596 412.987 639.497C407.093 430.624 440.404 405.401 326.194 358.224C211.985 311.047 116.812 415.898 -15.9807 226.198C-148.773 36.4979 140.599 -114.89 8.48796 -169.707C-123.623 -224.524 -110.705 -77.2303 -193.417 -158.225C-259.586 -223.021 -240.326 -286.705 -222.424 -310.448" stroke="#5C93B1" stroke-opacity="0.1"/>
<path d="M653.978 850.215C580.213 846.96 431.373 798.793 426.127 632.167C419.57 423.884 452.607 398.845 338.889 351.425C225.17 304.005 130.887 408.233 -1.78473 218.644C-134.456 29.0547 152.769 -120.927 21.2249 -176.024C-110.32 -231.121 -96.9834 -84.2145 -179.496 -165.248C-245.506 -230.076 -226.567 -293.51 -208.846 -317.124" stroke="#5C93B1" stroke-opacity="0.1"/>
<path d="M668.2 843.108C594.239 839.985 445.077 792.033 440.124 625.211C433.932 416.683 467.106 391.553 353.162 344.284C239.218 297.015 144.483 401.544 11.7953 211.966C-120.893 22.388 167.4 -128.307 35.5949 -183.23C-96.2102 -238.152 -83.1079 -91.0897 -165.698 -172.072C-231.771 -236.857 -212.663 -300.404 -194.85 -324.08" stroke="#5C93B1" stroke-opacity="0.1"/>
<path d="M681.591 836.557C607.416 833.541 457.886 785.733 453.171 618.634C447.277 409.761 480.587 384.538 366.378 337.361C252.169 290.184 156.996 395.035 24.2031 205.335C-108.59 15.6347 180.783 -135.754 48.6718 -190.57C-83.4395 -245.387 -70.5213 -98.0935 -153.233 -179.088C-219.402 -243.884 -200.142 -307.568 -182.24 -331.311" stroke="#5C93B1" stroke-opacity="0.1"/>
<path d="M694.717 830.183C620.936 826.903 472.049 778.666 466.749 611.958C460.123 403.574 493.16 378.534 379.402 331.055C265.644 283.577 171.374 387.823 38.6137 198.102C-94.1468 8.38013 193.092 -141.581 61.5024 -196.746C-70.0876 -251.912 -56.7019 -104.931 -139.258 -186.03C-205.302 -250.909 -186.38 -314.368 -168.663 -337.987" stroke="#5C93B1" stroke-opacity="0.1"/>
<path d="M708.195 822.371C634.036 819.38 484.554 771.642 479.893 604.625C474.066 395.853 507.378 370.631 393.208 323.513C279.038 276.395 183.852 381.226 51.148 191.659C-81.556 2.09153 207.803 -149.317 75.7376 -204.065C-56.3281 -258.814 -43.4596 -111.595 -126.128 -192.524C-192.263 -257.268 -172.986 -320.928 -155.08 -344.666" stroke="#5C93B1" stroke-opacity="0.1"/>
<path d="M721.964 815.568C648.002 812.444 498.841 764.492 493.887 597.67C487.695 389.143 520.87 364.013 406.925 316.744C292.981 269.475 198.247 374.004 65.5587 184.426C-67.1291 -5.15241 221.163 -155.847 89.3583 -210.77C-42.4467 -265.693 -29.3444 -118.63 -111.935 -199.612C-178.007 -264.397 -158.899 -327.945 -141.086 -351.62" stroke="#5C93B1" stroke-opacity="0.1"/>
<path d="M735.544 808.89C661.565 805.742 512.357 757.72 507.349 590.817C501.089 382.188 534.263 357.056 420.279 309.728C306.296 262.401 211.574 366.949 78.7977 177.238C-53.9789 -12.4723 234.327 -163.147 102.476 -218.138C-29.3743 -273.129 -16.2223 -125.992 -98.8561 -207.039C-164.963 -271.876 -145.871 -335.448 -128.062 -359.129" stroke="#5C93B1" stroke-opacity="0.1"/>
<path d="M748.379 801.508C674.22 798.517 524.738 750.779 520.076 583.762C514.25 374.99 547.562 349.768 433.392 302.65C319.221 255.532 224.036 360.363 91.3316 170.796C-41.3724 -18.7716 247.987 -170.18 115.921 -224.928C-16.1445 -279.677 -3.27597 -132.458 -85.9443 -213.388C-152.079 -278.131 -132.802 -341.792 -114.897 -365.529" stroke="#5C93B1" stroke-opacity="0.1"/>
<path d="M762.061 795.965C688.28 792.685 539.392 744.448 534.092 577.741C527.467 369.356 560.504 344.316 446.746 296.837C332.988 249.359 238.718 353.605 105.957 163.884C-26.8033 -25.8376 260.436 -175.799 128.846 -230.964C-2.74412 -286.129 10.6416 -139.149 -71.9142 -220.248C-137.959 -285.127 -119.036 -348.585 -101.319 -372.205" stroke="#5C93B1" stroke-opacity="0.1"/>
<path d="M775.727 788.027C701.749 784.879 552.54 736.856 547.533 569.953C541.273 361.324 574.447 336.193 460.463 288.865C346.479 241.537 251.758 346.086 118.981 156.375C-13.7953 -33.3355 274.511 -184.01 142.66 -239.001C10.8093 -293.992 23.9613 -146.855 -58.6725 -227.902C-124.78 -292.739 -105.688 -356.311 -87.8785 -379.992" stroke="#5C93B1" stroke-opacity="0.1"/>
<path d="M789.307 781.35C715.345 778.227 566.184 730.275 561.231 563.453C555.039 354.925 588.213 329.795 474.269 282.526C360.325 235.257 265.59 339.786 132.902 150.208C0.214376 -39.3702 288.507 -190.065 156.702 -244.988C24.8968 -299.911 37.9991 -152.848 -44.5913 -233.83C-110.664 -298.615 -91.5557 -362.162 -73.7427 -385.838" stroke="#5C93B1" stroke-opacity="0.1"/>
<path d="M802.887 774.673C728.909 771.524 579.7 723.502 574.693 556.599C568.433 347.97 601.607 322.838 487.623 275.511C373.639 228.183 278.918 332.731 146.141 143.021C13.3646 -46.6901 301.671 -197.365 169.82 -252.356C37.9692 -307.347 51.1212 -160.21 -31.5126 -241.257C-97.6196 -306.094 -78.5279 -369.665 -60.7186 -393.347" stroke="#5C93B1" stroke-opacity="0.1"/>
</svg>
