<svg width="932" height="172" viewBox="0 0 932 172" fill="none" xmlns="http://www.w3.org/2000/svg">
<path d="M1466.46 -20.3295C1421.68 37.9785 1296.66 132.414 1154.76 43.6946C977.39 -67.2052 975.356 -108.108 870.979 -41.8826C766.603 24.3428 799.727 159.362 566.026 161.69C332.325 164.018 371.08 -153.802 250.139 -77.332C129.198 -0.8618 259.268 70.2578 144.665 92.287C52.9819 109.91 10.9005 59.0703 1.32015 31.4472" stroke="#5C93B1" stroke-opacity="0.1"/>
<path d="M1468.63 -34.4731C1423.89 23.3705 1298.96 117.05 1157.15 29.021C979.893 -81.0158 977.857 -121.595 873.558 -55.9014C769.258 9.79249 802.37 143.747 568.83 146.039C335.291 148.33 373.995 -166.975 253.143 -91.1182C132.291 -15.2617 262.277 55.3056 147.754 77.152C56.136 94.6291 14.0798 44.1875 4.50391 16.7821" stroke="#5C93B1" stroke-opacity="0.1"/>
<path d="M1470.81 -49.6863C1426.03 8.62167 1301.01 103.058 1159.11 14.3378C981.739 -96.562 979.704 -137.465 875.328 -71.2394C770.952 -5.01397 804.076 130.005 570.375 132.333C336.674 134.661 375.429 -183.159 254.488 -106.689C133.546 -30.2186 263.617 40.901 149.013 62.9302C57.3305 80.5537 15.2491 29.7135 5.66878 2.09043" stroke="#5C93B1" stroke-opacity="0.1"/>
<path d="M1471.97 -63.8406C1427.23 -5.99694 1302.3 87.6829 1160.49 -0.346475C983.233 -110.383 981.197 -150.963 876.897 -85.2689C772.598 -19.575 805.71 114.379 572.17 116.671C338.631 118.963 377.335 -196.342 256.483 -120.486C135.631 -44.6292 265.617 25.9382 151.094 47.7845C59.4759 65.2616 17.4196 14.8201 7.84375 -12.5854" stroke="#5C93B1" stroke-opacity="0.1"/>
<path d="M1474.15 -79.2763C1429.41 -21.2004 1304.47 72.858 1162.67 -15.5161C985.417 -125.984 983.383 -166.725 879.08 -100.765C774.778 -34.8048 807.884 99.6818 574.344 101.993C340.805 104.303 379.522 -212.259 258.667 -136.096C137.812 -59.9319 267.795 10.9111 153.271 32.8493C61.6521 50.3999 19.598 -0.240832 10.0233 -27.755" stroke="#5C93B1" stroke-opacity="0.1"/>
<path d="M1476.32 -93.7321C1431.55 -35.4242 1306.52 59.0117 1164.62 -29.7081C987.253 -140.608 985.219 -181.511 880.843 -115.285C776.466 -49.0598 809.59 85.9592 575.889 88.2873C342.188 90.6154 380.944 -227.205 260.002 -150.735C139.061 -74.2645 269.132 -3.14492 154.528 18.8844C62.8452 36.5078 20.7638 -14.3324 11.1834 -41.9554" stroke="#5C93B1" stroke-opacity="0.1"/>
<path d="M1478.49 -107.876C1433.72 -50.0325 1308.7 43.6465 1166.8 -44.3839C989.419 -154.422 987.381 -195.002 883.01 -129.308C778.64 -63.6153 811.775 70.3393 578.074 72.6294C344.374 74.9195 383.102 -240.385 262.168 -164.53C141.233 -88.6742 271.309 -18.1059 156.708 3.73967C65.0263 21.2161 22.9407 -29.2258 13.3581 -56.6313" stroke="#5C93B1" stroke-opacity="0.1"/>
<path d="M1479.66 -123.099C1434.92 -64.7912 1309.98 29.6456 1168.18 -59.0732C990.931 -169.972 988.898 -210.874 884.593 -144.648C780.288 -78.422 813.389 56.5968 579.849 58.9266C346.309 61.2564 385.04 -256.564 264.181 -180.093C143.323 -103.622 273.303 -32.5034 158.778 -10.4733C67.1585 7.1508 25.1064 -43.6891 15.5329 -71.3121" stroke="#5C93B1" stroke-opacity="0.1"/>
<path d="M1481.84 -138.001C1437.1 -79.9247 1312.16 14.1337 1170.36 -74.2404C993.106 -184.708 991.072 -225.449 886.769 -159.489C782.467 -93.5291 815.573 40.9575 582.033 43.2683C348.494 45.5791 387.211 -270.984 266.356 -194.82C145.501 -118.656 275.484 -47.8132 160.96 -25.875C69.3411 -8.32437 27.2869 -58.9651 17.7122 -86.4793" stroke="#5C93B1" stroke-opacity="0.1"/>
<path d="M1484.02 -152.679C1439.24 -94.6032 1314.22 -0.545777 1172.32 -88.9209C994.943 -199.39 992.907 -240.131 888.534 -174.172C784.16 -108.212 817.29 26.2744 583.589 28.5835C349.888 30.8926 388.63 -285.67 267.692 -209.507C146.754 -133.344 276.828 -62.5003 162.225 -40.5629C70.5429 -23.0129 28.4594 -73.654 18.8779 -101.168" stroke="#5C93B1" stroke-opacity="0.1"/>
<path d="M1485.18 -167.145C1440.43 -108.837 1315.49 -14.4003 1173.69 -103.119C996.445 -214.017 994.413 -254.92 890.108 -188.694C785.803 -122.468 818.903 12.5509 585.363 14.8807C351.823 17.2105 390.554 -300.61 269.695 -224.139C148.837 -147.668 278.817 -76.5493 164.292 -54.5192C72.6726 -36.8951 30.6206 -87.735 21.0471 -115.358" stroke="#5C93B1" stroke-opacity="0.1"/>
<path d="M1488.36 -181.278C1443.59 -123.435 1318.57 -29.756 1176.66 -117.786C999.282 -227.825 997.245 -268.404 892.874 -202.711C788.503 -137.018 821.639 -3.06317 587.938 -0.773091C354.238 1.51699 392.966 -313.788 272.031 -237.932C151.097 -162.077 281.173 -91.5084 166.571 -69.6628C74.8901 -52.1864 32.8045 -102.628 23.2218 -130.034" stroke="#5C93B1" stroke-opacity="0.1"/>
</svg>
