<svg width="903" height="715" viewBox="0 0 903 715" fill="none" xmlns="http://www.w3.org/2000/svg">
<path d="M1361.73 171.642C1357.87 245.057 1308.35 393.71 1141.16 401C932.171 410.112 907.321 377.56 858.835 491.267C810.35 604.975 914.143 697.465 722.89 831.792C531.638 966.12 383.503 682.276 327.172 813.81C270.842 945.345 418.316 930.253 336.363 1013.34C270.8 1079.8 207.32 1061.75 183.775 1044.42" stroke="#5C93B1" stroke-opacity="0.1"/>
<path d="M1355.5 158.758C1351.41 231.771 1301.54 379.748 1134.81 387.555C926.409 397.314 901.74 365.029 853.017 478.255C804.294 591.481 907.473 683.1 716.333 817.307C525.193 951.513 378.441 669.77 321.836 800.748C265.232 931.727 412.323 916.228 330.333 999.115C264.741 1065.43 201.507 1047.69 178.089 1030.53" stroke="#5C93B1" stroke-opacity="0.1"/>
<path d="M1348.68 144.987C1344.82 218.403 1295.3 367.056 1128.11 374.346C919.122 383.457 894.271 350.905 845.786 464.613C797.301 578.321 901.094 670.81 709.841 805.138C518.588 939.466 370.454 655.621 314.123 787.156C257.793 918.691 405.267 903.599 323.313 986.683C257.751 1053.15 194.271 1035.1 170.726 1017.77" stroke="#5C93B1" stroke-opacity="0.1"/>
<path d="M1341.62 132.667C1337.52 205.68 1287.65 353.657 1120.93 361.464C912.522 371.222 887.853 338.938 839.13 452.164C790.407 565.39 893.587 657.009 702.447 791.215C511.306 925.422 364.554 643.679 307.95 774.657C251.345 905.635 398.437 890.136 316.447 973.024C250.854 1039.33 187.621 1021.6 164.203 1004.44" stroke="#5C93B1" stroke-opacity="0.1"/>
<path d="M1334.67 118.711C1330.7 191.917 1281.05 340.208 1114.13 347.729C905.483 357.13 880.724 324.711 832.149 438.158C783.575 551.605 887.051 643.666 695.921 777.888C504.792 912.11 357.338 629.323 300.905 760.557C244.472 891.79 391.717 876.52 309.778 959.484C244.227 1025.85 180.882 1007.95 157.404 990.706" stroke="#5C93B1" stroke-opacity="0.1"/>
<path d="M1328.27 105.569C1324.41 178.984 1274.89 327.638 1107.7 334.927C898.71 344.039 873.86 311.487 825.374 425.195C776.889 538.902 880.682 631.392 689.429 765.72C498.177 900.047 350.042 616.203 293.711 747.738C237.381 879.272 384.855 864.18 302.902 947.264C237.339 1013.73 173.859 995.681 150.314 978.348" stroke="#5C93B1" stroke-opacity="0.1"/>
<path d="M1322.04 92.6856C1317.92 165.715 1267.98 313.74 1101.18 321.602C892.668 331.429 867.997 299.145 819.215 412.411C770.433 525.677 873.632 617.283 682.358 751.579C491.085 885.876 344.353 604.119 287.679 735.143C231.006 866.168 378.173 850.619 296.117 933.55C230.473 999.895 167.214 982.176 143.791 965.022" stroke="#5C93B1" stroke-opacity="0.1"/>
<path d="M1314.38 79.4774C1310.55 152.876 1261.1 301.481 1093.99 308.716C885.104 317.759 860.255 285.206 811.829 398.874C763.403 512.542 867.176 605.045 676.057 739.283C484.938 873.521 336.783 589.69 280.521 721.178C224.259 852.667 371.659 837.625 289.771 920.665C224.261 987.097 160.805 969.031 137.266 951.693" stroke="#5C93B1" stroke-opacity="0.1"/>
<path d="M1307.73 65.9656C1303.77 139.171 1254.11 287.463 1087.19 294.983C878.547 304.384 853.788 271.965 805.213 385.412C756.639 498.859 860.115 590.92 668.985 725.142C477.856 859.365 330.402 576.578 273.969 707.811C217.536 839.044 364.781 823.774 282.842 906.738C217.291 973.109 153.946 955.208 130.468 937.96" stroke="#5C93B1" stroke-opacity="0.1"/>
<path d="M1301.21 52.6383C1297.22 125.861 1247.49 274.2 1080.49 281.775C871.743 291.245 846.982 258.827 798.348 372.314C749.715 485.801 853.211 577.848 661.948 712.161C470.684 846.473 323.251 563.672 266.749 694.952C210.247 826.231 357.568 810.911 275.563 893.918C209.96 960.325 146.59 942.439 123.106 925.196" stroke="#5C93B1" stroke-opacity="0.1"/>
<path d="M1293.97 40.0589C1290.13 113.457 1240.69 262.063 1073.58 269.297C864.692 278.341 839.843 245.788 791.417 359.456C742.991 473.123 846.765 565.626 655.645 699.864C464.526 834.102 316.371 550.271 260.11 681.76C203.848 813.248 351.247 798.207 269.359 881.247C203.849 947.679 140.393 929.612 116.854 912.275" stroke="#5C93B1" stroke-opacity="0.1"/>
<path d="M1288.58 26.6126C1284.46 99.6424 1234.52 247.667 1067.72 255.529C859.208 265.356 834.537 233.072 785.755 346.338C736.973 459.604 840.172 551.21 648.898 685.506C457.625 819.803 310.893 538.046 254.22 669.07C197.546 800.095 344.713 784.546 262.657 867.477C197.013 933.822 133.754 916.103 110.331 898.95" stroke="#5C93B1" stroke-opacity="0.1"/>
<path d="M1280.8 13.2198C1276.81 86.4424 1227.08 234.781 1060.08 242.357C851.331 251.826 826.571 219.409 777.937 332.895C729.303 446.382 832.799 538.43 641.536 672.742C450.273 807.054 302.839 524.253 246.338 655.533C189.836 786.813 337.156 771.492 255.152 854.5C189.548 920.906 126.179 903.021 102.695 885.778" stroke="#5C93B1" stroke-opacity="0.1"/>
<path d="M1274.27 -0.107354C1270.31 73.0983 1220.65 221.39 1053.73 228.91C845.087 238.311 820.328 205.892 771.753 319.339C723.179 432.786 826.655 524.847 635.525 659.07C444.396 793.292 296.942 510.505 240.509 641.738C184.076 772.972 331.321 757.701 249.382 840.665C183.831 907.036 120.486 889.135 97.0078 871.887" stroke="#5C93B1" stroke-opacity="0.1"/>
<path d="M1267.75 -13.4345C1263.76 59.7881 1214.03 208.127 1047.03 215.703C838.282 225.172 813.521 192.754 764.887 306.241C716.254 419.728 819.75 511.776 628.487 646.088C437.223 780.4 289.79 497.599 233.288 628.879C176.786 760.158 324.107 744.838 242.102 827.846C176.499 894.252 113.129 876.367 89.6453 859.123" stroke="#5C93B1" stroke-opacity="0.1"/>
</svg>
